<svg width="310" height="177" viewBox="0 0 310 177" fill="none" xmlns="http://www.w3.org/2000/svg">
<path d="M334.056 139.781L334.065 139.784L334.074 139.786C338.041 140.99 341.371 143.718 343.336 147.374C345.299 151.027 345.738 155.307 344.559 159.281C344.558 159.285 344.557 159.289 344.556 159.293L332.773 197.423L332.77 197.433L332.767 197.443C332.189 199.382 331.231 201.187 329.949 202.751C328.666 204.316 327.085 205.608 325.298 206.553C323.51 207.498 321.553 208.076 319.539 208.255C317.526 208.433 315.496 208.208 313.57 207.592L313.565 207.59L222.434 178.744L219.325 177.76L219.857 180.977L235.548 275.881C236.079 280.301 234.963 284.761 232.414 288.408C229.868 292.048 226.073 294.622 221.753 295.638L182.373 302.149C178.253 302.831 174.018 301.453 170.576 298.723C167.131 295.991 164.628 292.013 163.926 287.766L148.122 192.179L147.597 189.007L144.984 190.88L66.3799 247.191L66.3789 247.192C64.7277 248.377 62.8587 249.223 60.8795 249.681C58.9004 250.14 56.85 250.202 54.8463 249.865C52.8426 249.527 50.9251 248.796 49.2042 247.714C47.4832 246.632 45.9927 245.22 44.8186 243.559L44.8119 243.55L21.5165 210.999C21.5156 210.998 21.5146 210.996 21.5137 210.995C19.1209 207.619 18.1563 203.434 18.8302 199.351C19.5041 195.268 21.7617 191.617 25.1109 189.194C25.1122 189.193 25.1135 189.192 25.1148 189.191L91.5304 141.565L94.7874 139.229L90.9628 138.031L13.0265 113.614C13.0252 113.614 13.0239 113.614 13.0226 113.613C9.09767 112.36 5.82217 109.61 3.90506 105.958C1.98842 102.307 1.58389 98.0482 2.77861 94.1024C2.77931 94.1001 2.78001 94.0978 2.78072 94.0954L14.6572 55.9746L14.6587 55.9698C15.2621 54.0158 16.2455 52.2007 17.5522 50.629C18.8589 49.0572 20.463 47.7597 22.2724 46.811C24.0818 45.8623 26.0608 45.2811 28.0955 45.1008C30.1303 44.9204 32.1808 45.1445 34.1291 45.7602L34.1296 45.7604L125.72 74.6798L128.827 75.6608L128.296 72.4464L112.586 -22.5704C112.289 -24.5863 112.392 -26.6408 112.888 -28.6168C113.386 -30.5979 114.269 -32.4609 115.487 -34.099C116.706 -35.7371 118.235 -37.1182 119.988 -38.1629C121.741 -39.2076 123.682 -39.8955 125.702 -40.1872L125.722 -40.1901L125.742 -40.1935L165.012 -46.6863C173.74 -48.1293 182.666 -42.7014 184.038 -34.4014L199.833 61.127L200.358 64.3066L202.974 62.4241L281.113 6.18945L281.124 6.18175C282.739 5.00284 284.576 4.16143 286.523 3.70754C288.47 3.25366 290.489 3.19658 292.459 3.53966C294.43 3.88273 296.311 4.61902 297.992 5.70482C299.672 6.79063 301.118 8.2037 302.242 9.86013L302.256 9.88067L302.271 9.90087L325.566 42.4516C325.567 42.4528 325.568 42.4539 325.568 42.455C327.961 45.8309 328.926 50.0162 328.252 54.0997C327.578 58.183 325.321 61.8333 321.971 64.2569C321.97 64.2578 321.969 64.2586 321.968 64.2595L255.539 111.798L252.277 114.132L256.105 115.332L334.056 139.781Z" stroke="url(#paint0_linear_1_1359)" stroke-width="4"/>
<defs>
<linearGradient id="paint0_linear_1_1359" x1="4.74906" y1="67.5133" x2="388.813" y2="127.647" gradientUnits="userSpaceOnUse">
<stop offset="0.205" stop-color="#DACEE4"/>
<stop offset="1" stop-color="white" stop-opacity="0"/>
</linearGradient>
</defs>
</svg>
