<svg width="194" height="152" viewBox="0 0 194 152" fill="none" xmlns="http://www.w3.org/2000/svg">
<path d="M135.63 208.45L135.634 208.458L135.638 208.467C136.673 210.706 138.554 212.445 140.87 213.303C143.183 214.16 145.741 214.068 147.987 213.047C147.989 213.046 147.992 213.045 147.995 213.043L171.147 202.198L171.157 202.193L171.166 202.189C172.259 201.691 173.242 200.98 174.057 200.098C174.871 199.216 175.502 198.18 175.911 197.052C176.32 195.924 176.5 194.726 176.44 193.528C176.38 192.329 176.081 191.155 175.561 190.073L175.559 190.068L149.196 134.778L147.792 131.835L151.052 131.918L212.657 133.488C215.327 133.434 217.884 132.401 219.84 130.584C221.79 128.772 223.006 126.309 223.258 123.662L223.909 98.1173C223.971 95.6831 222.834 93.3028 220.914 91.4707C218.991 89.6357 216.411 88.482 213.85 88.4167L151.785 86.8346L148.571 86.7527L150.065 83.9059L178.858 29.0399L178.859 29.0388C179.42 27.97 179.765 26.8008 179.873 25.5985C179.98 24.3963 179.849 23.1846 179.486 22.0331C179.123 20.8817 178.536 19.8131 177.758 18.8889C176.98 17.9648 176.027 17.2032 174.953 16.6483L174.943 16.6429L152.227 4.73611C152.226 4.73558 152.225 4.73506 152.224 4.73453C150.038 3.60153 147.493 3.37659 145.141 4.10889C142.791 4.84106 140.825 6.47061 139.672 8.64229C139.671 8.64365 139.67 8.64502 139.669 8.64638L115.313 55.0064L113.449 58.5545L111.735 54.9316L89.3512 7.628C89.3506 7.6268 89.3501 7.6256 89.3495 7.62441C88.2886 5.4151 86.3997 3.71085 84.0904 2.88083C81.782 2.05114 79.2397 2.16188 77.0127 3.18882C77.0106 3.18981 77.0084 3.19081 77.0063 3.1918L53.8661 14.0967L53.8616 14.0988C52.7605 14.6144 51.7723 15.3423 50.954 16.2405C50.1357 17.1388 49.5033 18.1896 49.0931 19.3327C48.683 20.4758 48.503 21.6885 48.5637 22.9012C48.6243 24.1139 48.9244 25.3027 49.4466 26.3994L49.4468 26.3998L75.8969 81.9752L77.297 84.917L74.04 84.834L12.3521 83.2616C11.1427 83.2529 9.94346 83.4818 8.8225 83.9352C7.69669 84.3906 6.67212 85.0636 5.80748 85.9153C4.94284 86.767 4.25515 87.7808 3.78379 88.8984C3.31243 90.016 3.06661 91.2155 3.0604 92.4282L3.0603 92.4485L3.05978 92.4689L2.40982 117.967C2.27338 123.32 6.27344 128.095 11.1886 128.221L73.2152 129.802L76.4369 129.884L74.9332 132.734L46.1482 187.298L46.142 187.31C45.5822 188.354 45.2384 189.501 45.1312 190.681C45.0239 191.861 45.1554 193.051 45.5179 194.179C45.8802 195.307 46.4662 196.351 47.2409 197.249C48.0157 198.147 48.9634 198.88 50.0277 199.405L50.0499 199.416L50.0719 199.427L72.7877 211.334C72.7889 211.335 72.7901 211.335 72.7913 211.336C74.9771 212.469 77.5226 212.693 79.8736 211.961C82.2244 211.229 84.19 209.599 85.3434 207.427C85.3441 207.426 85.3447 207.425 85.3454 207.424L109.644 161.064L111.506 157.511L113.223 161.136L135.63 208.45Z" stroke="url(#paint0_linear_1_1250)" stroke-width="4"/>
<defs>
<linearGradient id="paint0_linear_1_1250" x1="60.0076" y1="6.13843" x2="122.079" y2="148.561" gradientUnits="userSpaceOnUse">
<stop stop-color="white"/>
<stop offset="1" stop-color="white" stop-opacity="0"/>
</linearGradient>
</defs>
</svg>
