<svg width="40" height="39" viewBox="0 0 40 39" fill="none" xmlns="http://www.w3.org/2000/svg">
<rect x="0.781798" y="0.712218" width="37.7981" height="37.7981" rx="18.899" stroke="#9CA3AF" stroke-width="0.879026"/>
<path d="M30.019 15.394C30.019 15.394 29.813 13.9394 29.1785 13.3008C28.375 12.4602 27.4767 12.4561 27.0647 12.4066C24.1145 12.1924 19.685 12.1924 19.685 12.1924H19.6768C19.6768 12.1924 15.2473 12.1924 12.2971 12.4066C11.885 12.4561 10.9868 12.4602 10.1833 13.3008C9.54873 13.9394 9.34683 15.394 9.34683 15.394C9.34683 15.394 9.13257 17.1039 9.13257 18.8098V20.4085C9.13257 22.1144 9.34271 23.8244 9.34271 23.8244C9.34271 23.8244 9.54873 25.2789 10.1792 25.9175C10.9826 26.7581 12.0375 26.7293 12.5072 26.8199C14.1966 26.9806 19.6809 27.0301 19.6809 27.0301C19.6809 27.0301 24.1145 27.0218 27.0647 26.8117C27.4767 26.7622 28.375 26.7581 29.1785 25.9175C29.813 25.2789 30.019 23.8244 30.019 23.8244C30.019 23.8244 30.2292 22.1185 30.2292 20.4085V18.8098C30.2292 17.1039 30.019 15.394 30.019 15.394ZM17.5012 22.3492V16.4199L23.1997 19.3949L17.5012 22.3492Z" fill="#9CA3AF"/>
</svg>
