<svg width="40" height="39" viewBox="0 0 40 39" fill="none" xmlns="http://www.w3.org/2000/svg">
<rect x="1.11706" y="0.712218" width="37.7857" height="37.794" rx="18.8929" stroke="#9CA3AF" stroke-width="0.879026"/>
<g clip-path="url(#clip0_1_1374)">
<path d="M20.0161 10.9625C22.8345 10.9625 23.1683 10.9749 24.2767 11.0243C25.3068 11.0696 25.863 11.2427 26.2339 11.3869C26.7242 11.5765 27.0786 11.8072 27.4453 12.1739C27.8161 12.5448 28.0427 12.895 28.2323 13.3853C28.3765 13.7562 28.5496 14.3165 28.5949 15.3425C28.6443 16.455 28.6567 16.7888 28.6567 19.6031C28.6567 22.4214 28.6443 22.7552 28.5949 23.8636C28.5496 24.8937 28.3765 25.4499 28.2323 25.8208C28.0427 26.3111 27.812 26.6655 27.4453 27.0322C27.0744 27.403 26.7242 27.6297 26.2339 27.8192C25.863 27.9634 25.3027 28.1365 24.2767 28.1818C23.1642 28.2312 22.8304 28.2436 20.0161 28.2436C17.1978 28.2436 16.864 28.2312 15.7556 28.1818C14.7255 28.1365 14.1692 27.9634 13.7984 27.8192C13.3081 27.6297 12.9537 27.3989 12.587 27.0322C12.2162 26.6614 11.9895 26.3111 11.8 25.8208C11.6558 25.4499 11.4827 24.8896 11.4374 23.8636C11.388 22.7511 11.3756 22.4173 11.3756 19.6031C11.3756 16.7847 11.388 16.4509 11.4374 15.3425C11.4827 14.3124 11.6558 13.7562 11.8 13.3853C11.9895 12.895 12.2203 12.5406 12.587 12.1739C12.9578 11.8031 13.3081 11.5765 13.7984 11.3869C14.1692 11.2427 14.7296 11.0696 15.7556 11.0243C16.864 10.9749 17.1978 10.9625 20.0161 10.9625ZM20.0161 9.06299C17.1524 9.06299 16.794 9.07535 15.6691 9.12479C14.5483 9.17424 13.7778 9.35554 13.1103 9.61513C12.4139 9.88707 11.8247 10.2456 11.2396 10.8348C10.6504 11.4199 10.2919 12.0091 10.02 12.7013C9.76039 13.373 9.57909 14.1394 9.52964 15.2601C9.4802 16.3891 9.46783 16.7476 9.46783 19.6113C9.46783 22.475 9.4802 22.8335 9.52964 23.9584C9.57909 25.0791 9.76039 25.8496 10.02 26.5171C10.2919 27.2135 10.6504 27.8027 11.2396 28.3878C11.8247 28.9729 12.4139 29.3355 13.1062 29.6033C13.7778 29.8629 14.5442 30.0442 15.665 30.0937C16.7898 30.1431 17.1483 30.1555 20.012 30.1555C22.8757 30.1555 23.2342 30.1431 24.3591 30.0937C25.4798 30.0442 26.2504 29.8629 26.9179 29.6033C27.6101 29.3355 28.1993 28.9729 28.7844 28.3878C29.3695 27.8027 29.7321 27.2135 29.9999 26.5213C30.2595 25.8496 30.4408 25.0832 30.4903 23.9625C30.5397 22.8376 30.5521 22.4791 30.5521 19.6154C30.5521 16.7517 30.5397 16.3932 30.4903 15.2684C30.4408 14.1476 30.2595 13.3771 29.9999 12.7096C29.7404 12.0091 29.3819 11.4199 28.7927 10.8348C28.2076 10.2497 27.6183 9.88707 26.9261 9.61925C26.2545 9.35966 25.4881 9.17836 24.3673 9.12892C23.2383 9.07535 22.8798 9.06299 20.0161 9.06299Z" fill="#9CA3AF"/>
<path d="M20.0096 14.1912C17.0199 14.1912 14.5944 16.6176 14.5944 19.6085C14.5944 22.5993 17.0199 25.0258 20.0096 25.0258C22.9992 25.0258 25.4247 22.5993 25.4247 19.6085C25.4247 16.6176 22.9992 14.1912 20.0096 14.1912ZM20.0096 23.1225C18.07 23.1225 16.4969 21.5488 16.4969 19.6085C16.4969 17.6681 18.07 16.0944 20.0096 16.0944C21.9491 16.0944 23.5222 17.6681 23.5222 19.6085C23.5222 21.5488 21.9491 23.1225 20.0096 23.1225Z" fill="#9CA3AF"/>
<path d="M26.9035 13.9776C26.9035 14.678 26.3352 15.2423 25.6393 15.2423C24.9392 15.2423 24.3751 14.6738 24.3751 13.9776C24.3751 13.2773 24.9433 12.7129 25.6393 12.7129C26.3352 12.7129 26.9035 13.2814 26.9035 13.9776Z" fill="#9CA3AF"/>
</g>
<defs>
<clipPath id="clip0_1_1374">
<rect width="21.0843" height="21.0925" fill="white" transform="translate(9.46783 9.06299)"/>
</clipPath>
</defs>
</svg>
