<svg width="39" height="39" viewBox="0 0 39 39" fill="none" xmlns="http://www.w3.org/2000/svg">
<rect x="0.439513" y="0.712218" width="37.7985" height="37.7209" rx="18.8604" stroke="#9CA3AF" stroke-width="0.879026"/>
<path d="M19.3386 9.06299C13.513 9.06299 8.79028 13.7857 8.79028 19.6113C8.79028 24.558 12.1961 28.709 16.7905 29.8491V22.8349H14.6155V19.6113H16.7905V18.2223C16.7905 14.6321 18.4154 12.968 21.9402 12.968C22.6086 12.968 23.7617 13.0992 24.2334 13.23V16.1519C23.9845 16.1257 23.552 16.1126 23.0149 16.1126C21.2854 16.1126 20.617 16.7679 20.617 18.4712V19.6113H24.0625L23.4706 22.8349H20.617V30.0824C25.8401 29.4516 29.8873 25.0044 29.8873 19.6113C29.8869 13.7857 25.1642 9.06299 19.3386 9.06299Z" fill="#9CA3AF"/>
</svg>
