<svg width="147" height="48" viewBox="0 0 147 48" fill="none" xmlns="http://www.w3.org/2000/svg">
<path d="M15.008 17.232C14.8587 17.4773 14.704 17.6587 14.544 17.776C14.3947 17.8827 14.1973 17.936 13.952 17.936C13.7173 17.936 13.4613 17.856 13.184 17.696C12.9173 17.5253 12.6027 17.344 12.24 17.152C11.8773 16.96 11.4613 16.784 10.992 16.624C10.5227 16.4533 9.97333 16.368 9.344 16.368C8.23467 16.368 7.40267 16.6187 6.848 17.12C6.29333 17.6107 6.016 18.256 6.016 19.056C6.016 19.568 6.16533 19.9947 6.464 20.336C6.77333 20.6667 7.17333 20.9547 7.664 21.2C8.16533 21.4453 8.73067 21.664 9.36 21.856C9.98933 22.048 10.6347 22.2613 11.296 22.496C11.9573 22.72 12.6027 22.9867 13.232 23.296C13.8613 23.6053 14.4213 23.9947 14.912 24.464C15.4133 24.9333 15.8133 25.5093 16.112 26.192C16.4213 26.864 16.576 27.6853 16.576 28.656C16.576 29.712 16.3893 30.704 16.016 31.632C15.6533 32.5493 15.1253 33.3547 14.432 34.048C13.7387 34.7307 12.88 35.2693 11.856 35.664C10.8427 36.0587 9.69067 36.256 8.4 36.256C7.664 36.256 6.928 36.1813 6.192 36.032C5.46667 35.8827 4.76267 35.6747 4.08 35.408C3.408 35.1413 2.77333 34.8213 2.176 34.448C1.57867 34.0747 1.056 33.6587 0.608 33.2L2.016 30.928C2.13333 30.7573 2.288 30.6187 2.48 30.512C2.672 30.3947 2.87467 30.336 3.088 30.336C3.376 30.336 3.68 30.4427 4 30.656C4.32 30.8693 4.688 31.104 5.104 31.36C5.52 31.616 6 31.8507 6.544 32.064C7.09867 32.2773 7.76 32.384 8.528 32.384C9.648 32.384 10.512 32.128 11.12 31.616C11.7387 31.104 12.048 30.3413 12.048 29.328C12.048 28.7413 11.8933 28.2667 11.584 27.904C11.2853 27.5413 10.8907 27.2373 10.4 26.992C9.90933 26.7467 9.34933 26.5387 8.72 26.368C8.09067 26.1867 7.44533 25.9893 6.784 25.776C6.12267 25.5627 5.47733 25.3067 4.848 25.008C4.21867 24.7093 3.65867 24.3147 3.168 23.824C2.67733 23.3333 2.27733 22.7253 1.968 22C1.66933 21.2747 1.52 20.3733 1.52 19.296C1.52 18.432 1.69067 17.5947 2.032 16.784C2.37333 15.9733 2.87467 15.2533 3.536 14.624C4.19733 13.9947 5.008 13.488 5.968 13.104C6.93867 12.72 8.048 12.528 9.296 12.528C10.6933 12.528 11.984 12.7467 13.168 13.184C14.3627 13.6107 15.3707 14.208 16.192 14.976L15.008 17.232ZM26.8578 19.248C28.0951 19.248 29.2204 19.4453 30.2338 19.84C31.2471 20.2347 32.1164 20.8 32.8418 21.536C33.5671 22.2613 34.1271 23.1467 34.5218 24.192C34.9164 25.2373 35.1138 26.416 35.1138 27.728C35.1138 29.04 34.9164 30.224 34.5218 31.28C34.1271 32.3253 33.5671 33.216 32.8418 33.952C32.1164 34.688 31.2471 35.2533 30.2338 35.648C29.2204 36.0427 28.0951 36.24 26.8578 36.24C25.6098 36.24 24.4738 36.0427 23.4498 35.648C22.4364 35.2533 21.5671 34.688 20.8418 33.952C20.1164 33.216 19.5511 32.3253 19.1458 31.28C18.7511 30.224 18.5538 29.04 18.5538 27.728C18.5538 26.416 18.7511 25.2373 19.1458 24.192C19.5511 23.1467 20.1164 22.2613 20.8418 21.536C21.5671 20.8 22.4364 20.2347 23.4498 19.84C24.4738 19.4453 25.6098 19.248 26.8578 19.248ZM26.8578 32.928C28.1164 32.928 29.0498 32.496 29.6578 31.632C30.2658 30.7573 30.5698 29.4613 30.5698 27.744C30.5698 26.0373 30.2658 24.752 29.6578 23.888C29.0498 23.0133 28.1164 22.576 26.8578 22.576C25.5671 22.576 24.6178 23.0133 24.0098 23.888C23.4018 24.752 23.0978 26.0373 23.0978 27.744C23.0978 29.4613 23.4018 30.7573 24.0098 31.632C24.6178 32.496 25.5671 32.928 26.8578 32.928ZM52.3665 19.504V36H49.6465C49.0812 36 48.7185 35.744 48.5585 35.232L48.2705 34.08C47.9398 34.4 47.5985 34.6933 47.2465 34.96C46.8945 35.2267 46.5158 35.456 46.1105 35.648C45.7158 35.84 45.2838 35.9893 44.8145 36.096C44.3558 36.2027 43.8545 36.256 43.3105 36.256C42.4145 36.256 41.6145 36.1013 40.9105 35.792C40.2172 35.4827 39.6358 35.0507 39.1665 34.496C38.6972 33.9413 38.3398 33.28 38.0945 32.512C37.8492 31.744 37.7265 30.9013 37.7265 29.984V19.504H42.1425V29.984C42.1425 30.9013 42.3505 31.616 42.7665 32.128C43.1932 32.6293 43.8225 32.88 44.6545 32.88C45.2732 32.88 45.8545 32.7467 46.3985 32.48C46.9425 32.2027 47.4598 31.8293 47.9505 31.36V19.504H52.3665ZM60.4595 12.144V36H56.0435V12.144H60.4595ZM77.258 17.232C77.1087 17.4773 76.954 17.6587 76.794 17.776C76.6447 17.8827 76.4473 17.936 76.202 17.936C75.9673 17.936 75.7113 17.856 75.434 17.696C75.1673 17.5253 74.8527 17.344 74.49 17.152C74.1273 16.96 73.7113 16.784 73.242 16.624C72.7727 16.4533 72.2233 16.368 71.594 16.368C70.4847 16.368 69.6527 16.6187 69.098 17.12C68.5433 17.6107 68.266 18.256 68.266 19.056C68.266 19.568 68.4153 19.9947 68.714 20.336C69.0233 20.6667 69.4233 20.9547 69.914 21.2C70.4153 21.4453 70.9807 21.664 71.61 21.856C72.2393 22.048 72.8847 22.2613 73.546 22.496C74.2073 22.72 74.8527 22.9867 75.482 23.296C76.1113 23.6053 76.6713 23.9947 77.162 24.464C77.6633 24.9333 78.0633 25.5093 78.362 26.192C78.6713 26.864 78.826 27.6853 78.826 28.656C78.826 29.712 78.6393 30.704 78.266 31.632C77.9033 32.5493 77.3753 33.3547 76.682 34.048C75.9887 34.7307 75.13 35.2693 74.106 35.664C73.0927 36.0587 71.9407 36.256 70.65 36.256C69.914 36.256 69.178 36.1813 68.442 36.032C67.7167 35.8827 67.0127 35.6747 66.33 35.408C65.658 35.1413 65.0233 34.8213 64.426 34.448C63.8287 34.0747 63.306 33.6587 62.858 33.2L64.266 30.928C64.3833 30.7573 64.538 30.6187 64.73 30.512C64.922 30.3947 65.1247 30.336 65.338 30.336C65.626 30.336 65.93 30.4427 66.25 30.656C66.57 30.8693 66.938 31.104 67.354 31.36C67.77 31.616 68.25 31.8507 68.794 32.064C69.3487 32.2773 70.01 32.384 70.778 32.384C71.898 32.384 72.762 32.128 73.37 31.616C73.9887 31.104 74.298 30.3413 74.298 29.328C74.298 28.7413 74.1433 28.2667 73.834 27.904C73.5353 27.5413 73.1407 27.2373 72.65 26.992C72.1593 26.7467 71.5993 26.5387 70.97 26.368C70.3407 26.1867 69.6953 25.9893 69.034 25.776C68.3727 25.5627 67.7273 25.3067 67.098 25.008C66.4687 24.7093 65.9087 24.3147 65.418 23.824C64.9273 23.3333 64.5273 22.7253 64.218 22C63.9193 21.2747 63.77 20.3733 63.77 19.296C63.77 18.432 63.9407 17.5947 64.282 16.784C64.6233 15.9733 65.1247 15.2533 65.786 14.624C66.4473 13.9947 67.258 13.488 68.218 13.104C69.1887 12.72 70.298 12.528 71.546 12.528C72.9433 12.528 74.234 12.7467 75.418 13.184C76.6127 13.6107 77.6207 14.208 78.442 14.976L77.258 17.232ZM85.8338 31.648C86.2498 32.128 86.6978 32.464 87.1778 32.656C87.6684 32.848 88.1911 32.944 88.7458 32.944C89.2791 32.944 89.7644 32.8427 90.2018 32.64C90.6391 32.4373 91.0124 32.1227 91.3218 31.696C91.6418 31.2587 91.8871 30.704 92.0578 30.032C92.2284 29.36 92.3138 28.56 92.3138 27.632C92.3138 26.7147 92.2391 25.936 92.0898 25.296C91.9511 24.656 91.7484 24.1387 91.4818 23.744C91.2258 23.3493 90.9111 23.0667 90.5378 22.896C90.1644 22.7147 89.7484 22.624 89.2898 22.624C88.5111 22.624 87.8551 22.7787 87.3218 23.088C86.7991 23.3867 86.3031 23.8293 85.8338 24.416V31.648ZM85.5778 21.664C85.9084 21.3013 86.2604 20.9707 86.6338 20.672C87.0071 20.3627 87.4071 20.1013 87.8338 19.888C88.2604 19.664 88.7191 19.4933 89.2098 19.376C89.7004 19.248 90.2338 19.184 90.8098 19.184C91.6951 19.184 92.5058 19.376 93.2418 19.76C93.9884 20.1333 94.6284 20.6827 95.1618 21.408C95.6951 22.1227 96.1111 23.0027 96.4097 24.048C96.7084 25.0933 96.8577 26.288 96.8577 27.632C96.8577 28.8693 96.6871 30.016 96.3458 31.072C96.0151 32.1173 95.5404 33.024 94.9218 33.792C94.3031 34.56 93.5564 35.1627 92.6818 35.6C91.8178 36.0267 90.8524 36.24 89.7858 36.24C88.8898 36.24 88.1271 36.1067 87.4978 35.84C86.8791 35.5733 86.3244 35.2107 85.8338 34.752V41.328H81.4178V19.504H84.1378C84.6924 19.504 85.0604 19.76 85.2418 20.272L85.5778 21.664ZM108.323 29.104C107.246 29.1573 106.35 29.2533 105.635 29.392C104.92 29.52 104.35 29.6907 103.923 29.904C103.507 30.1173 103.208 30.3627 103.027 30.64C102.856 30.9067 102.771 31.2 102.771 31.52C102.771 32.16 102.947 32.6133 103.299 32.88C103.662 33.1467 104.163 33.28 104.803 33.28C105.539 33.28 106.174 33.152 106.707 32.896C107.251 32.6293 107.79 32.2187 108.323 31.664V29.104ZM99.331 21.792C100.302 20.9173 101.374 20.2667 102.547 19.84C103.72 19.4027 104.99 19.184 106.355 19.184C107.336 19.184 108.211 19.344 108.979 19.664C109.758 19.984 110.414 20.432 110.947 21.008C111.491 21.5733 111.907 22.2507 112.195 23.04C112.483 23.8293 112.627 24.6933 112.627 25.632V36H110.611C110.195 36 109.875 35.9413 109.651 35.824C109.438 35.7067 109.262 35.4613 109.123 35.088L108.771 34.032C108.355 34.3947 107.95 34.7147 107.555 34.992C107.171 35.2693 106.771 35.504 106.355 35.696C105.939 35.8773 105.491 36.016 105.011 36.112C104.542 36.208 104.014 36.256 103.427 36.256C102.702 36.256 102.04 36.16 101.443 35.968C100.846 35.776 100.328 35.4933 99.891 35.12C99.4643 34.736 99.1337 34.2613 98.899 33.696C98.6643 33.1307 98.547 32.48 98.547 31.744C98.547 31.136 98.7017 30.528 99.011 29.92C99.3203 29.312 99.8483 28.7627 100.595 28.272C101.352 27.7707 102.355 27.36 103.603 27.04C104.862 26.7093 106.435 26.5227 108.323 26.48V25.632C108.323 24.5973 108.104 23.84 107.667 23.36C107.23 22.8693 106.6 22.624 105.779 22.624C105.171 22.624 104.664 22.6987 104.259 22.848C103.854 22.9867 103.496 23.1413 103.187 23.312C102.888 23.472 102.606 23.6267 102.339 23.776C102.072 23.9147 101.763 23.984 101.411 23.984C101.102 23.984 100.84 23.9093 100.627 23.76C100.424 23.6 100.254 23.4133 100.115 23.2L99.331 21.792ZM128.042 23.184C127.914 23.3547 127.786 23.488 127.658 23.584C127.53 23.6693 127.349 23.712 127.114 23.712C126.901 23.712 126.693 23.6533 126.49 23.536C126.298 23.408 126.074 23.2747 125.818 23.136C125.562 22.9867 125.258 22.8533 124.906 22.736C124.554 22.608 124.117 22.544 123.594 22.544C122.933 22.544 122.357 22.6667 121.866 22.912C121.386 23.1467 120.986 23.488 120.666 23.936C120.346 24.384 120.106 24.928 119.946 25.568C119.797 26.208 119.722 26.928 119.722 27.728C119.722 29.4133 120.058 30.704 120.73 31.6C121.413 32.496 122.341 32.944 123.514 32.944C123.919 32.944 124.266 32.912 124.554 32.848C124.853 32.7733 125.109 32.6827 125.322 32.576C125.546 32.4693 125.738 32.352 125.898 32.224C126.058 32.096 126.207 31.9787 126.346 31.872C126.495 31.7653 126.639 31.68 126.778 31.616C126.927 31.5413 127.093 31.504 127.274 31.504C127.615 31.504 127.882 31.632 128.074 31.888L129.338 33.488C128.869 34.032 128.367 34.4853 127.834 34.848C127.301 35.2 126.746 35.4827 126.17 35.696C125.605 35.8987 125.029 36.0373 124.442 36.112C123.855 36.1973 123.274 36.24 122.698 36.24C121.685 36.24 120.725 36.0533 119.818 35.68C118.911 35.296 118.117 34.7413 117.434 34.016C116.751 33.2907 116.207 32.4 115.802 31.344C115.407 30.288 115.21 29.0827 115.21 27.728C115.21 26.5227 115.386 25.4027 115.738 24.368C116.09 23.3333 116.607 22.4373 117.29 21.68C117.973 20.9227 118.815 20.3307 119.818 19.904C120.831 19.4667 121.999 19.248 123.322 19.248C124.581 19.248 125.685 19.4507 126.634 19.856C127.583 20.2613 128.437 20.848 129.194 21.616L128.042 23.184ZM141.757 25.808C141.757 25.3493 141.693 24.912 141.565 24.496C141.447 24.08 141.255 23.712 140.989 23.392C140.722 23.072 140.386 22.8213 139.981 22.64C139.575 22.448 139.09 22.352 138.525 22.352C137.469 22.352 136.642 22.6507 136.045 23.248C135.447 23.8453 135.058 24.6987 134.877 25.808H141.757ZM134.813 28.432C134.951 29.9787 135.389 31.1093 136.125 31.824C136.871 32.5387 137.842 32.896 139.037 32.896C139.645 32.896 140.167 32.8267 140.605 32.688C141.053 32.5387 141.442 32.3787 141.773 32.208C142.114 32.0267 142.418 31.8667 142.685 31.728C142.962 31.5787 143.234 31.504 143.501 31.504C143.842 31.504 144.109 31.632 144.301 31.888L145.581 33.488C145.111 34.032 144.594 34.4853 144.029 34.848C143.463 35.2 142.877 35.4827 142.269 35.696C141.661 35.8987 141.047 36.0373 140.429 36.112C139.81 36.1973 139.213 36.24 138.637 36.24C137.485 36.24 136.407 36.0533 135.405 35.68C134.413 35.296 133.543 34.736 132.797 34C132.061 33.2533 131.479 32.3307 131.053 31.232C130.626 30.1333 130.413 28.8587 130.413 27.408C130.413 26.288 130.594 25.232 130.957 24.24C131.33 23.248 131.863 22.384 132.557 21.648C133.25 20.912 134.093 20.3307 135.085 19.904C136.077 19.4667 137.197 19.248 138.445 19.248C139.501 19.248 140.471 19.4187 141.357 19.76C142.253 20.0907 143.021 20.576 143.661 21.216C144.311 21.856 144.813 22.6453 145.165 23.584C145.527 24.512 145.709 25.5733 145.709 26.768C145.709 27.0987 145.693 27.3707 145.661 27.584C145.629 27.7973 145.575 27.968 145.501 28.096C145.426 28.224 145.325 28.3147 145.197 28.368C145.069 28.4107 144.903 28.432 144.701 28.432H134.813Z" fill="#15355E"/>
</svg>
